<svg width="1336" height="253" viewBox="0 0 1336 253" fill="none" xmlns="http://www.w3.org/2000/svg">
<g clip-path="url(#clip0_77_2)">
<path d="M226.852 1H23.1481C10.3638 1 0 11.3638 0 24.1481V227.852C0 240.636 10.3638 251 23.1481 251H226.852C239.636 251 250 240.636 250 227.852V24.1481C250 11.3638 239.636 1 226.852 1Z" fill="black"/>
<path d="M44.8613 78.5232H91.528V175.884H62.6391V88.9399L75.1391 101.579H44.8613V78.5232ZM132.783 77.2732C139.913 77.2732 146.07 78.3843 151.256 80.6065C156.533 82.7362 160.607 85.838 163.478 89.9121C166.441 93.8936 167.922 98.6158 167.922 104.079C167.922 107.968 166.95 111.718 165.006 115.329C163.061 118.847 160.469 121.671 157.228 123.801C162.043 126.116 165.839 129.495 168.617 133.94C171.487 138.384 172.922 143.199 172.922 148.384C172.922 154.218 171.256 159.31 167.922 163.662C164.681 167.921 160.052 171.255 154.033 173.662C148.015 175.977 140.978 177.134 132.922 177.134C124.867 177.134 117.83 175.977 111.811 173.662C105.885 171.347 101.256 168.06 97.9222 163.801C94.5889 159.542 92.9222 154.588 92.9222 148.94C92.9222 143.569 94.4963 138.616 97.6444 134.079C100.793 129.542 104.913 126.116 110.006 123.801C106.394 121.394 103.478 118.338 101.256 114.634C99.1259 110.931 98.0611 107.134 98.0611 103.245C98.0611 97.875 99.45 93.2917 102.228 89.4954C105.098 85.6065 109.126 82.5973 114.311 80.4676C119.589 78.338 125.746 77.2732 132.783 77.2732ZM132.922 135.19C128.756 135.19 125.561 136.116 123.339 137.968C121.117 139.819 120.006 142.505 120.006 146.023C120.006 149.357 121.117 151.949 123.339 153.801C125.561 155.56 128.756 156.44 132.922 156.44C137.089 156.44 140.283 155.56 142.506 153.801C144.82 151.949 145.978 149.357 145.978 146.023C145.978 142.597 144.867 139.958 142.644 138.107C140.422 136.162 137.181 135.19 132.922 135.19ZM132.922 96.1621C129.404 96.1621 126.672 96.9491 124.728 98.5232C122.876 100.097 121.95 102.458 121.95 105.607C121.95 108.569 122.876 110.838 124.728 112.412C126.672 113.894 129.404 114.634 132.922 114.634C136.441 114.634 139.126 113.894 140.978 112.412C142.922 110.838 143.894 108.569 143.894 105.607C143.894 102.458 142.922 100.097 140.978 98.5232C139.126 96.9491 136.441 96.1621 132.922 96.1621ZM183.045 150.884C186.841 150.884 189.943 152.088 192.35 154.495C194.85 156.903 196.1 160.051 196.1 163.94C196.1 167.829 194.85 170.977 192.35 173.384C189.943 175.792 186.841 176.995 183.045 176.995C179.156 176.995 175.962 175.792 173.462 173.384C171.054 170.977 169.85 167.829 169.85 163.94C169.85 160.051 171.054 156.903 173.462 154.495C175.962 152.088 179.156 150.884 183.045 150.884Z" fill="white"/>
</g>
<path d="M385.8 210.4C374.867 210.4 364.667 208.467 355.2 204.6C345.733 200.733 337.467 195.333 330.4 188.4C323.333 181.467 317.8 173.333 313.8 164C309.933 154.533 308 144.333 308 133.4C308 122.333 309.933 112.133 313.8 102.8C317.667 93.4667 323.133 85.3333 330.2 78.4C337.267 71.4667 345.533 66.1333 355 62.4C364.467 58.5333 374.733 56.6 385.8 56.6C396.867 56.6 407.133 58.5333 416.6 62.4C426.067 66.2667 434.333 71.6667 441.4 78.6C448.467 85.4 453.933 93.4667 457.8 102.8C461.8 112.133 463.8 122.333 463.8 133.4C463.8 144.333 461.8 154.533 457.8 164C453.8 173.333 448.267 181.467 441.2 188.4C434.133 195.333 425.867 200.733 416.4 204.6C407.067 208.467 396.867 210.4 385.8 210.4ZM385.8 185.6C393.133 185.6 399.867 184.333 406 181.8C412.133 179.133 417.467 175.467 422 170.8C426.667 166.133 430.2 160.6 432.6 154.2C435.133 147.8 436.4 140.867 436.4 133.4C436.4 125.933 435.133 119.067 432.6 112.8C430.2 106.4 426.667 100.867 422 96.2C417.467 91.4 412.133 87.7333 406 85.2C399.867 82.6667 393.133 81.4 385.8 81.4C378.6 81.4 371.933 82.6667 365.8 85.2C359.667 87.7333 354.267 91.4 349.6 96.2C345.067 100.867 341.533 106.4 339 112.8C336.467 119.067 335.2 125.933 335.2 133.4C335.2 140.867 336.467 147.8 339 154.2C341.533 160.6 345.067 166.133 349.6 170.8C354.267 175.467 359.667 179.133 365.8 181.8C371.933 184.333 378.6 185.6 385.8 185.6ZM485.786 208V99.2H510.386V120.6L508.386 116.8C510.919 110.267 515.053 105.333 520.786 102C526.653 98.5333 533.453 96.8 541.186 96.8C549.186 96.8 556.253 98.5333 562.386 102C568.653 105.467 573.519 110.333 576.986 116.6C580.453 122.733 582.186 129.867 582.186 138V208H555.986V144.2C555.986 139.4 555.053 135.267 553.186 131.8C551.319 128.333 548.719 125.667 545.386 123.8C542.186 121.8 538.386 120.8 533.986 120.8C529.719 120.8 525.919 121.8 522.586 123.8C519.253 125.667 516.653 128.333 514.786 131.8C512.919 135.267 511.986 139.4 511.986 144.2V208H485.786ZM655.941 210.4C644.741 210.4 634.941 207.867 626.541 202.8C618.141 197.733 611.607 190.867 606.941 182.2C602.274 173.533 599.941 163.933 599.941 153.4C599.941 142.467 602.274 132.8 606.941 124.4C611.741 115.867 618.207 109.133 626.341 104.2C634.607 99.2667 643.807 96.8 653.941 96.8C662.474 96.8 669.941 98.2 676.341 101C682.874 103.8 688.407 107.667 692.941 112.6C697.474 117.533 700.941 123.2 703.341 129.6C705.741 135.867 706.941 142.667 706.941 150C706.941 151.867 706.807 153.8 706.541 155.8C706.407 157.8 706.074 159.533 705.541 161H621.541V141H690.741L678.341 150.4C679.541 144.267 679.207 138.8 677.341 134C675.607 129.2 672.674 125.4 668.541 122.6C664.541 119.8 659.674 118.4 653.941 118.4C648.474 118.4 643.607 119.8 639.341 122.6C635.074 125.267 631.807 129.267 629.541 134.6C627.407 139.8 626.607 146.133 627.141 153.6C626.607 160.267 627.474 166.2 629.741 171.4C632.141 176.467 635.607 180.4 640.141 183.2C644.807 186 650.141 187.4 656.141 187.4C662.141 187.4 667.207 186.133 671.341 183.6C675.607 181.067 678.941 177.667 681.341 173.4L702.541 183.8C700.407 189 697.074 193.6 692.541 197.6C688.007 201.6 682.607 204.733 676.341 207C670.207 209.267 663.407 210.4 655.941 210.4ZM729.002 208V59H828.002V83H756.202V121.2H824.002V145.2H756.202V184H828.002V208H729.002ZM845.747 208V99.2H871.947V208H845.747ZM845.747 87V59H871.947V87H845.747ZM948.938 252C940.804 252 933.271 250.667 926.338 248C919.404 245.333 913.404 241.6 908.338 236.8C903.404 232.133 899.804 226.6 897.538 220.2L921.938 211C923.538 216.067 926.671 220.133 931.338 223.2C936.138 226.4 942.004 228 948.938 228C954.271 228 958.938 227 962.938 225C967.071 223 970.271 220.067 972.538 216.2C974.804 212.467 975.938 207.933 975.938 202.6V177.8L980.938 183.8C977.204 190.333 972.204 195.267 965.938 198.6C959.671 201.933 952.538 203.6 944.538 203.6C934.404 203.6 925.338 201.267 917.338 196.6C909.338 191.933 903.071 185.533 898.538 177.4C894.004 169.267 891.738 160.133 891.738 150C891.738 139.733 894.004 130.6 898.538 122.6C903.071 114.6 909.271 108.333 917.138 103.8C925.004 99.1333 933.938 96.8 943.938 96.8C952.071 96.8 959.204 98.5333 965.338 102C971.604 105.333 976.804 110.2 980.938 116.6L977.338 123.2V99.2H1002.14V202.6C1002.14 212.067 999.804 220.533 995.138 228C990.604 235.467 984.338 241.333 976.338 245.6C968.471 249.867 959.338 252 948.938 252ZM947.738 179.4C953.338 179.4 958.204 178.2 962.338 175.8C966.604 173.267 969.938 169.8 972.338 165.4C974.738 161 975.938 155.933 975.938 150.2C975.938 144.6 974.671 139.6 972.138 135.2C969.738 130.667 966.404 127.133 962.138 124.6C958.004 122.067 953.204 120.8 947.738 120.8C942.271 120.8 937.338 122.067 932.938 124.6C928.538 127.133 925.071 130.667 922.538 135.2C920.138 139.6 918.938 144.6 918.938 150.2C918.938 155.8 920.138 160.8 922.538 165.2C925.071 169.6 928.471 173.067 932.738 175.6C937.138 178.133 942.138 179.4 947.738 179.4ZM1026.61 208V56.6H1052.81V120.6L1049.21 116.8C1051.74 110.267 1055.87 105.333 1061.61 102C1067.47 98.5333 1074.27 96.8 1082.01 96.8C1090.01 96.8 1097.07 98.5333 1103.21 102C1109.47 105.467 1114.34 110.333 1117.81 116.6C1121.27 122.733 1123.01 129.867 1123.01 138V208H1096.81V144.2C1096.81 139.4 1095.87 135.267 1094.01 131.8C1092.14 128.333 1089.54 125.667 1086.21 123.8C1083.01 121.8 1079.21 120.8 1074.81 120.8C1070.54 120.8 1066.74 121.8 1063.41 123.8C1060.07 125.667 1057.47 128.333 1055.61 131.8C1053.74 135.267 1052.81 139.4 1052.81 144.2V208H1026.61ZM1194.76 209.2C1182.49 209.2 1172.96 205.867 1166.16 199.2C1159.49 192.4 1156.16 182.867 1156.16 170.6V122.6H1137.36V99.2H1139.36C1144.69 99.2 1148.83 97.8 1151.76 95C1154.69 92.2 1156.16 88.1333 1156.16 82.8V74.4H1182.36V99.2H1207.36V122.6H1182.36V169.2C1182.36 172.8 1182.96 175.867 1184.16 178.4C1185.49 180.933 1187.49 182.867 1190.16 184.2C1192.96 185.533 1196.49 186.2 1200.76 186.2C1201.69 186.2 1202.76 186.133 1203.96 186C1205.29 185.867 1206.56 185.733 1207.76 185.6V208C1205.89 208.267 1203.76 208.533 1201.36 208.8C1198.96 209.067 1196.76 209.2 1194.76 209.2ZM1240.98 252C1238.04 252 1235.18 251.733 1232.38 251.2C1229.58 250.8 1227.04 250 1224.78 248.8V227C1226.51 227.4 1228.58 227.8 1230.98 228.2C1233.51 228.6 1235.84 228.8 1237.98 228.8C1243.98 228.8 1248.31 227.4 1250.98 224.6C1253.78 221.933 1256.24 218.333 1258.38 213.8L1265.58 197L1265.18 219L1217.78 99.2H1245.98L1279.18 187.6H1269.18L1302.18 99.2H1330.58L1283.18 219C1280.38 225.933 1276.98 231.867 1272.98 236.8C1268.98 241.733 1264.31 245.467 1258.98 248C1253.78 250.667 1247.78 252 1240.98 252Z" fill="black"/>
<defs>
<clipPath id="clip0_77_2">
<rect width="250" height="250" fill="white" transform="translate(0 1)"/>
</clipPath>
</defs>
</svg>
